<svg width="77" height="77" viewBox="0 0 77 77" fill="none" xmlns="http://www.w3.org/2000/svg">
<circle cx="38.5" cy="38.5" r="38.5" fill="#E1A0FF"/>
<path d="M27.5 56C26.5375 56 25.7138 55.6576 25.029 54.9728C24.3442 54.2879 24.0012 53.4637 24 52.5V31.5C24 30.5375 24.343 29.7138 25.029 29.029C25.715 28.3442 26.5387 28.0012 27.5 28H31C31 26.075 31.6854 24.4271 33.0563 23.0562C34.4271 21.6854 36.075 21 38 21C39.925 21 41.5729 21.6854 42.9438 23.0562C44.3146 24.4271 45 26.075 45 28H48.5C49.4625 28 50.2868 28.343 50.9727 29.029C51.6588 29.715 52.0012 30.5387 52 31.5V52.5C52 53.4625 51.6576 54.2868 50.9727 54.9728C50.2879 55.6587 49.4637 56.0012 48.5 56H27.5ZM27.5 52.5H48.5V31.5H45V35C45 35.4958 44.832 35.9118 44.496 36.2478C44.16 36.5838 43.7447 36.7512 43.25 36.75C42.7553 36.7488 42.34 36.5808 42.004 36.246C41.668 35.9112 41.5 35.4958 41.5 35V31.5H34.5V35C34.5 35.4958 34.332 35.9118 33.996 36.2478C33.66 36.5838 33.2447 36.7512 32.75 36.75C32.2553 36.7488 31.84 36.5808 31.504 36.246C31.168 35.9112 31 35.4958 31 35V31.5H27.5V52.5ZM34.5 28H41.5C41.5 27.0375 41.1576 26.2138 40.4727 25.529C39.7879 24.8442 38.9637 24.5012 38 24.5C37.0363 24.4988 36.2127 24.8418 35.529 25.529C34.8453 26.2162 34.5023 27.0398 34.5 28Z" fill="white"/>
</svg>
